<svg width="16" height="17" viewBox="0 0 16 17" fill="none" xmlns="http://www.w3.org/2000/svg">
<path d="M7.96683 12.4997C8.20016 12.4997 8.3975 12.419 8.55883 12.2577C8.72016 12.0963 8.80061 11.8992 8.80016 11.6663C8.79972 11.4335 8.71927 11.2361 8.55883 11.0743C8.39839 10.9126 8.20105 10.8321 7.96683 10.833C7.73261 10.8339 7.5355 10.9146 7.3755 11.075C7.2155 11.2355 7.13483 11.4326 7.1335 11.6663C7.13216 11.9001 7.21283 12.0975 7.3755 12.2583C7.53816 12.4192 7.73527 12.4997 7.96683 12.4997ZM7.36683 9.93301H8.60016C8.60016 9.56634 8.64194 9.27746 8.7255 9.06634C8.80905 8.85523 9.04505 8.56634 9.4335 8.19968C9.72239 7.91079 9.95016 7.63568 10.1168 7.37434C10.2835 7.11301 10.3668 6.79923 10.3668 6.43301C10.3668 5.81079 10.1391 5.33301 9.6835 4.99968C9.22794 4.66634 8.68905 4.49968 8.06683 4.49968C7.4335 4.49968 6.91972 4.66634 6.5255 4.99968C6.13128 5.33301 5.85616 5.73301 5.70016 6.19968L6.80016 6.63301C6.85572 6.43301 6.98083 6.21634 7.1755 5.98301C7.37016 5.74968 7.66728 5.63301 8.06683 5.63301C8.42239 5.63301 8.68905 5.73034 8.86683 5.92501C9.04461 6.11968 9.1335 6.33346 9.1335 6.56634C9.1335 6.78857 9.06683 6.99701 8.9335 7.19168C8.80016 7.38634 8.6335 7.56679 8.4335 7.73301C7.94461 8.16634 7.64461 8.49412 7.5335 8.71634C7.42239 8.93857 7.36683 9.34412 7.36683 9.93301ZM8.00016 15.1663C7.07794 15.1663 6.21128 14.9915 5.40016 14.6417C4.58905 14.2919 3.8835 13.8168 3.2835 13.2163C2.6835 12.6159 2.20861 11.9103 1.85883 11.0997C1.50905 10.289 1.33394 9.42234 1.3335 8.49968C1.33305 7.57701 1.50816 6.71034 1.85883 5.89968C2.2095 5.08901 2.68439 4.38346 3.2835 3.78301C3.88261 3.18257 4.58816 2.70768 5.40016 2.35834C6.21216 2.00901 7.07883 1.8339 8.00016 1.83301C8.9215 1.83212 9.78816 2.00723 10.6002 2.35834C11.4122 2.70946 12.1177 3.18434 12.7168 3.78301C13.3159 4.38168 13.7911 5.08723 14.1422 5.89968C14.4933 6.71212 14.6682 7.57879 14.6668 8.49968C14.6655 9.42057 14.4904 10.2872 14.1415 11.0997C13.7926 11.9121 13.3177 12.6177 12.7168 13.2163C12.1159 13.815 11.4104 14.2901 10.6002 14.6417C9.78994 14.9932 8.92327 15.1681 8.00016 15.1663Z" fill="#0F9667"/>
</svg>
